<svg width="24" height="24" viewBox="0 0 24 24" fill="none" xmlns="http://www.w3.org/2000/svg">
<path d="M2.038 19.3439C1.62001 19.3439 1.27401 19.2905 1 19.1837V17.86C1.29723 17.9529 1.56196 17.9994 1.79417 17.9994C2.41651 17.9994 2.82753 17.5233 3.02723 16.5712L4.53895 9.45155H3.29196L3.43825 8.71311L4.78974 8.18366L4.93604 7.54275C5.14038 6.62318 5.45155 5.97066 5.86954 5.58518C6.29217 5.19506 6.88896 5 7.65991 5C8.194 5 8.68398 5.09985 9.12983 5.29956L8.70488 6.52565C8.3612 6.39561 8.04539 6.33059 7.75744 6.33059C7.43699 6.33059 7.17923 6.43044 6.98417 6.63015C6.79375 6.82985 6.64746 7.15727 6.54528 7.61241L6.41989 8.21153H8.0152L7.75744 9.45155H6.16213L4.60861 16.7872C4.42284 17.665 4.11864 18.3105 3.69601 18.7239C3.27338 19.1372 2.72071 19.3439 2.038 19.3439Z" fill="#0E1318"/>
<path d="M8.00127 13.9937C8.00127 12.4007 8.28921 10.9331 8.8651 9.59088C9.44564 8.24404 10.3281 6.95757 11.5123 5.73148H12.9683C10.6555 8.27655 9.49905 11.0399 9.49905 14.0215C9.49905 15.5495 9.7661 16.9335 10.3002 18.1735H9.02533C8.34262 16.9614 8.00127 15.5681 8.00127 13.9937Z" fill="#0E1318"/>
<path d="M15.323 13.2204L13.1982 15.9164H11.3173L14.6263 11.9525L13.0171 8.21153H14.7239L15.727 10.81L17.7264 8.21153H19.6352L16.4237 12.0361L18.1514 15.9164H16.4376L15.323 13.2204Z" fill="#0E1318"/>
<path d="M23 9.92527C23 11.5136 22.7144 12.9766 22.1431 14.3141C21.5719 15.647 20.6871 16.9335 19.4889 18.1735H18.0329C20.3458 15.6285 21.5022 12.8651 21.5022 9.88347C21.5022 8.36479 21.2352 6.98079 20.7011 5.73148H21.9759C22.6586 6.96221 23 8.36014 23 9.92527Z" fill="#0E1318"/>
</svg>
